<?xml version="1.0" encoding="UTF-8" standalone="no"?>
<!-- Created with Inkscape (http://www.inkscape.org/) -->

<svg
   width="83.738419mm"
   height="27.090885mm"
   viewBox="0 0 83.738419 27.090885"
   version="1.1"
   id="svg1"
   sodipodi:docname="logo-fequis.svg"
   inkscape:version="1.3.2 (091e20ef0f, 2023-11-25, custom)"
   xmlns:inkscape="http://www.inkscape.org/namespaces/inkscape"
   xmlns:sodipodi="http://sodipodi.sourceforge.net/DTD/sodipodi-0.dtd"
   xmlns="http://www.w3.org/2000/svg"
   xmlns:svg="http://www.w3.org/2000/svg">
  <sodipodi:namedview
     id="namedview1"
     pagecolor="#ffffff"
     bordercolor="#666666"
     borderopacity="1.0"
     inkscape:showpageshadow="2"
     inkscape:pageopacity="0.0"
     inkscape:pagecheckerboard="0"
     inkscape:deskcolor="#d1d1d1"
     inkscape:document-units="mm"
     inkscape:zoom="4.4203376"
     inkscape:cx="158.24583"
     inkscape:cy="51.127316"
     inkscape:window-width="1920"
     inkscape:window-height="1066"
     inkscape:window-x="1920"
     inkscape:window-y="0"
     inkscape:window-maximized="1"
     inkscape:current-layer="layer1" />
  <defs
     id="defs1" />
  <g
     id="layer1"
     transform="translate(-62.443872,-89.955579)">
    <path
       d="m 72.453949,90.625093 q 0.522549,0 0.963449,0.195956 0.45723,0.195956 0.783823,0.538878 0.342923,0.342923 0.538879,0.800153 0.195956,0.45723 0.195956,0.979779 0,0.522549 -0.195956,0.996109 -0.195956,0.45723 -0.538879,0.800153 -0.326593,0.342923 -0.783823,0.538878 -0.4409,0.195956 -0.963449,0.195956 h -4.964214 v 2.955667 h 2.906678 q 0.522549,0 0.979779,0.195956 0.45723,0.195956 0.800153,0.538878 0.342922,0.342923 0.538878,0.800154 0.195956,0.45723 0.195956,0.97978 0,0.52255 -0.195956,0.96345 -0.195956,0.4409 -0.538878,0.76749 -0.342923,0.31026 -0.800153,0.48989 -0.45723,0.17963 -0.979779,0.17963 h -2.906678 v 5.50309 q 0,0.52255 -0.195956,0.97978 -0.195956,0.4409 -0.538878,0.78382 -0.342923,0.32659 -0.816483,0.52255 -0.45723,0.19596 -0.979779,0.19596 -0.522549,0 -0.979779,-0.19596 -0.45723,-0.19596 -0.800153,-0.52255 -0.342923,-0.34292 -0.538878,-0.78382 -0.195956,-0.45723 -0.195956,-0.97978 V 93.041881 q 0.01633,-0.391911 0.146967,-0.816482 0.130637,-0.440901 0.424571,-0.783823 0.293933,-0.359253 0.767493,-0.587868 0.48989,-0.228615 1.175735,-0.228615 z m 6.368536,14.925297 q 0.538879,0.68585 1.077757,1.0451 0.555208,0.34292 1.371691,0.34292 0.391911,0 0.636856,-0.0327 0.261275,-0.0327 0.440901,-0.098 0.179626,-0.0653 0.310263,-0.13064 0.130637,-0.0816 0.261275,-0.1633 0.620526,-0.45723 1.192064,-0.52255 0.571538,-0.0816 1.077757,0.11431 0.359252,0.13064 0.636856,0.39191 0.293934,0.26128 0.48989,0.58787 0.195956,0.34292 0.277604,0.80015 0.08165,0.4409 0.03266,0.91446 -0.04899,0.45723 -0.261274,0.89814 -0.212286,0.4409 -0.604197,0.75116 -0.293934,0.22861 -0.685846,0.45723 -0.391911,0.21228 -0.93079,0.39191 -0.538878,0.17963 -1.241053,0.29393 -0.702175,0.11431 -1.632965,0.11431 -1.616636,0 -3.037315,-0.60419 -1.42068,-0.62053 -2.498437,-1.66563 -1.061427,-1.06143 -1.681954,-2.46578 -0.620527,-1.42068 -0.620527,-3.03731 0,-1.61664 0.620527,-3.03732 0.620527,-1.420676 1.681954,-2.465774 1.077757,-1.061427 2.498437,-1.665624 1.420679,-0.620527 3.037315,-0.620527 1.583976,0 2.971996,0.604197 1.40435,0.587868 2.433118,1.632965 1.045098,1.045098 1.649295,2.449443 0.604197,1.38803 0.636856,2.98833 0,0.47356 -0.163296,0.81648 -0.163297,0.3266 -0.47356,0.53888 -0.293934,0.19596 -0.702175,0.29394 -0.408241,0.0816 -0.898131,0.0816 z m 5.274477,-2.98832 q -0.4409,-0.80016 -1.110416,-1.24106 -0.653186,-0.4409 -1.616635,-0.4409 -0.93079,0 -1.567647,0.47356 -0.620526,0.47356 -1.045097,1.2084 z m 21.996048,0.89813 v 0.31026 q 0,0.049 0,0.098 0.0163,0.0327 0.0163,0.0653 v 10.4673 q 0,0.098 -0.0163,0.19596 0,0.098 -0.0163,0.19596 -0.049,0.47356 -0.26128,0.8818 -0.19595,0.40824 -0.52255,0.70217 -0.32659,0.31027 -0.75116,0.47356 -0.42457,0.17963 -0.91446,0.19596 h -0.098 -0.0817 q -0.76749,-0.0163 -1.35536,-0.45723 -0.47356,-0.3266 -0.76749,-0.86547 -0.2776,-0.52255 -0.2776,-1.15941 v -3.34758 q -0.63686,0.22862 -1.322706,0.35926 -0.669516,0.13063 -1.388021,0.13063 -1.600305,0 -3.020985,-0.60419 -1.40435,-0.62053 -2.465777,-1.66563 -1.061428,-1.06143 -1.681954,-2.48211 -0.620527,-1.42068 -0.620527,-3.02098 0,-1.61664 0.620527,-3.02099 0.620526,-1.420676 1.681954,-2.482104 1.061427,-1.061427 2.465777,-1.665624 1.42068,-0.620527 3.020985,-0.620527 0.914461,0 1.763607,0.212286 0.84914,0.195955 1.61663,0.571537 0.34292,-0.375582 0.81648,-0.571537 0.47356,-0.212286 1.02877,-0.212286 0.52255,0 0.97978,0.195956 0.47356,0.195956 0.81648,0.538878 0.34293,0.326593 0.53888,0.783824 0.19596,0.4409 0.19596,0.963449 z m -10.483638,0.47356 q 0,0.57154 0.212285,1.06143 0.228615,0.48989 0.604197,0.86547 0.375582,0.35925 0.865472,0.57154 0.489889,0.21228 1.045097,0.21228 0.522549,0 0.97978,-0.17963 0.473559,-0.17962 0.832807,-0.48989 0.35926,-0.32659 0.58787,-0.75116 0.24495,-0.4409 0.31027,-0.94712 v -0.66951 q -0.0653,-0.50622 -0.31027,-0.94712 -0.22861,-0.4409 -0.58787,-0.75117 -0.359248,-0.32659 -0.832807,-0.50622 -0.457231,-0.17962 -0.97978,-0.17962 -0.555208,0 -1.045097,0.21228 -0.48989,0.21229 -0.865472,0.58787 -0.375582,0.35925 -0.604197,0.84914 -0.212285,0.48989 -0.212285,1.06143 z m 13.586288,-0.11431 v -5.241817 q 0,-0.522549 0.19596,-0.963449 0.19595,-0.457231 0.53888,-0.783824 0.34292,-0.326593 0.80015,-0.506219 0.45723,-0.195956 0.97978,-0.195956 0.50622,0 0.96345,0.195956 0.45723,0.179626 0.80015,0.506219 0.34292,0.326593 0.53888,0.783824 0.19596,0.4409 0.19596,0.963449 v 5.274477 q 0,0.48989 0.14696,0.97978 0.1633,0.47356 0.4409,0.86547 0.29394,0.37558 0.70218,0.62053 0.42457,0.22861 0.94712,0.22861 1.01244,0 1.58397,-0.65318 0.57154,-0.65319 0.6042,-1.69829 v -5.535749 q 0,-0.506219 0.19596,-0.963449 0.19595,-0.45723 0.52255,-0.800153 0.34292,-0.342923 0.80015,-0.538878 0.45723,-0.195956 0.97978,-0.195956 0.50622,0 0.96345,0.195956 0.47356,0.195955 0.81648,0.538878 0.34292,0.342923 0.53888,0.800153 0.21228,0.45723 0.21228,0.963449 V 109.0776 q 0,0.52255 -0.21228,0.97978 -0.19596,0.4409 -0.55521,0.78382 -0.34292,0.32659 -0.81648,0.52255 -0.45723,0.19596 -0.99611,0.19596 -0.68585,0 -1.22473,-0.31027 -0.52254,-0.31026 -0.84914,-0.83281 -0.73483,0.52255 -1.53498,0.83281 -0.78383,0.29394 -1.61664,0.29394 -1.45334,0 -2.67806,-0.62053 -1.22473,-0.63686 -2.10653,-1.68195 -0.8818,-1.06143 -1.38802,-2.44945 -0.48989,-1.38802 -0.48989,-2.90668 v -0.0327 z m 17.60336,-11.234799 q 0,-0.538878 0.21229,-1.012438 0.21228,-0.48989 0.57153,-0.849142 0.35926,-0.359252 0.83282,-0.555208 0.48989,-0.212286 1.02876,-0.212286 0.53888,0 1.01244,0.212286 0.48989,0.195956 0.84914,0.555208 0.37559,0.359252 0.58787,0.849142 0.21229,0.47356 0.21229,1.012438 0,0.538879 -0.21229,1.028768 -0.21228,0.47356 -0.58787,0.832812 -0.35925,0.359253 -0.84914,0.571538 -0.47356,0.212286 -1.01244,0.212286 -0.53887,0 -1.02876,-0.212286 -0.47356,-0.212285 -0.83282,-0.571538 -0.35925,-0.359252 -0.57153,-0.832812 -0.21229,-0.489889 -0.21229,-1.028768 z m 5.19283,16.443959 q 0,0.52255 -0.19596,0.97978 -0.19595,0.4409 -0.53887,0.78382 -0.3266,0.34292 -0.78383,0.53888 -0.45723,0.19596 -0.97978,0.19596 -0.52255,0 -0.99611,-0.19596 -0.45723,-0.19596 -0.80015,-0.53888 -0.34292,-0.34292 -0.55521,-0.78382 -0.19595,-0.45723 -0.19595,-0.97978 V 98.626622 q 0,-0.506219 0.19595,-0.963449 0.21229,-0.457231 0.55521,-0.800153 0.35925,-0.342923 0.81648,-0.538879 0.47356,-0.195956 1.01244,-0.195956 0.52255,0 0.96345,0.195956 0.45723,0.195956 0.78383,0.538879 0.34292,0.342922 0.52254,0.800153 0.19596,0.45723 0.19596,0.963449 z m 8.3281,-2.98833 q -1.09408,-0.40824 -2.13918,-0.86547 -1.02877,-0.45723 -1.84525,-1.0451 -0.80015,-0.58786 -1.30637,-1.35536 -0.48989,-0.78382 -0.48989,-1.84525 0,-1.061425 0.45723,-1.943226 0.45723,-0.89813 1.24105,-1.534987 0.78383,-0.653186 1.84525,-1.012438 1.06143,-0.359253 2.26982,-0.359253 0.88181,0 1.8126,0.195956 0.94711,0.195956 1.71461,0.604197 0.76749,0.391912 1.25738,0.996109 0.50622,0.587868 0.50622,1.38802 0,0.522549 -0.22861,0.930792 -0.21229,0.39191 -0.52255,0.66951 -0.31027,0.26128 -0.65319,0.40825 -0.32659,0.13063 -0.55521,0.13063 -0.37558,0 -0.73483,-0.13063 -0.34292,-0.14697 -0.70218,-0.31027 -0.35925,-0.17962 -0.73483,-0.31026 -0.37558,-0.14697 -0.78382,-0.14697 -0.39192,0 -0.62053,0.049 -0.21229,0.049 -0.32659,0.13064 -0.098,0.0653 -0.13064,0.14696 -0.0327,0.0816 -0.0327,0.14697 0,0.27761 0.53888,0.48989 0.53888,0.21229 1.6003,0.55521 0.86548,0.29393 1.66563,0.66952 0.80015,0.35925 1.40435,0.89813 0.62053,0.53887 0.97978,1.3227 0.37558,0.76749 0.37558,1.86158 0,1.02877 -0.42457,1.9269 -0.40824,0.89813 -1.17574,1.56764 -0.75116,0.66952 -1.82892,1.06143 -1.06142,0.37558 -2.35147,0.37558 -0.68584,0 -1.53498,-0.14696 -0.83282,-0.14697 -1.66563,-0.47356 -0.81648,-0.34293 -1.55132,-0.88181 -0.7185,-0.5552 -1.1594,-1.35536 -0.40824,-0.7185 -0.40824,-1.42068 0,-0.48989 0.17962,-0.8818 0.19596,-0.40824 0.50622,-0.68584 0.3266,-0.29394 0.73484,-0.45723 0.42457,-0.1633 0.89813,-0.1633 0.73483,0 1.22472,0.32659 0.48989,0.31027 0.89813,0.70218 0.40824,0.39191 0.81649,0.7185 0.42457,0.31027 1.01243,0.31027 0.45723,0 0.66952,-0.14697 0.21229,-0.14697 0.17963,-0.34292 -0.0163,-0.21229 -0.26128,-0.42457 -0.22861,-0.21229 -0.63685,-0.34293 h 0.0163 z"
       id="text1"
       style="font-weight:800;font-size:32.6593px;line-height:1.25;font-family:'Antipasto Pro';-inkscape-font-specification:'Antipasto Pro, Ultra-Bold';letter-spacing:0px;fill:#ffffff;stroke-width:0.264583"
       aria-label="Fequis" />
  </g>
</svg>
